<svg class="diagram-root" style="background: #f5f6f6" xmlns="http://www.w3.org/2000/svg" xmlns:xlink="http://www.w3.org/1999/xlink"><style>.diagram-root { font-family: "Helvetica Neue", sans-serif; font-size: 12px; } .t { overflow: visible; } .t-bg { y: 40; fill: #fff;   } .th { fill: #005aa0;   } .tht { fill: #fff; font-size: 14px;  } .tf { fill: #323c46; overflow: visible; } .tf.pk { fill: #005aa0; font-weight: bold; } .tf.fk { font-weight: bold; } .ty { fill: #adb1b5; font-weight: normal; text-anchor: end; } .r { fill: transparent; stroke: #c3c3c3; stroke-width: 1; } .l { stroke: 1; } .i { fill: #c2c7ce; stroke: #c2c7ce; } .i.ix { fill: #afb3b6; stroke: #000; } .fa { fill: transparent; overflow: visible; } .fa .bg.hover { fill: #f7f7f7; } .c { cy: 12; r: 4; stroke: #d2d2dc; fill: #d2d2dc; } .hr { fill: transparent; stroke: #323c46; stroke-opacity: 0.035; stroke-width: 13; } .dc { stroke: #fa5a3c; fill: #fa5a3c; } .x { stroke: white; stroke-width: 1; } .hl .th { fill: #1b9bff; } .hl .tht {  } .fhl .bg { fill: #e7f4ff; } .fhls .bg {  } .r.hl { stroke: #1b9bff; } .dim { opacity: 0.25; }</style><g class="drawing-wrapper" transform="translate(87, -53) scale(1,1)"><g class="rs"><path d="M 997.44 341 m -1, 0 a 1,1 0 1,0 2,0 a 1,1 0 1,0 -2,0 M 997.44 341 m -0.5, 0 a 0.5,0.5 0 1,0 1,0 a 0.5,0.5 0 1,0 -1,0  M997.44 341 L997.44 341 985.44 341 M 997.44 347 m -1, 0 a 1,1 0 1,0 2,0 a 1,1 0 1,0 -2,0 M 997.44 347 m -0.5, 0 a 0.5,0.5 0 1,0 1,0 a 0.5,0.5 0 1,0 -1,0  M997.44 347 L997.44 347 990.44 341 997.44 335 M 997.44 335 m -1, 0 a 1,1 0 1,0 2,0 a 1,1 0 1,0 -2,0 M 997.44 335 m -0.5, 0 a 0.5,0.5 0 1,0 1,0 a 0.5,0.5 0 1,0 -1,0  M985.44 341 Q 922.12 341, 858.79 482.88 T 732.13 624.75 M 720.13 624.75 m -1, 0 a 1,1 0 1,0 2,0 a 1,1 0 1,0 -2,0 M 720.13 624.75 m -0.5, 0 a 0.5,0.5 0 1,0 1,0 a 0.5,0.5 0 1,0 -1,0  M720.13 624.75 L720.13 624.75 732.13 624.75 M726.13 630.75 L726.13 630.75 726.13 618.75" id="h428351644" class="r"></path><path d="M 202.91 239.92 m -1, 0 a 1,1 0 1,0 2,0 a 1,1 0 1,0 -2,0 M 202.91 239.92 m -0.5, 0 a 0.5,0.5 0 1,0 1,0 a 0.5,0.5 0 1,0 -1,0  M202.91 239.92 L202.91 239.92 190.91 239.92 M 202.91 245.92 m -1, 0 a 1,1 0 1,0 2,0 a 1,1 0 1,0 -2,0 M 202.91 245.92 m -0.5, 0 a 0.5,0.5 0 1,0 1,0 a 0.5,0.5 0 1,0 -1,0  M202.91 245.92 L202.91 245.92 195.91 239.92 202.91 233.92 M 202.91 233.92 m -1, 0 a 1,1 0 1,0 2,0 a 1,1 0 1,0 -2,0 M 202.91 233.92 m -0.5, 0 a 0.5,0.5 0 1,0 1,0 a 0.5,0.5 0 1,0 -1,0  M190.91 239.92 Q 168.35 239.92, 145.79 375.96 T 100.67 512 M 88.67 512 m -1, 0 a 1,1 0 1,0 2,0 a 1,1 0 1,0 -2,0 M 88.67 512 m -0.5, 0 a 0.5,0.5 0 1,0 1,0 a 0.5,0.5 0 1,0 -1,0  M88.67 512 L88.67 512 100.67 512 M94.67 518 L94.67 518 94.67 506" id="h2731873070" class="r"></path><path d="M 40.37 240.55 m -1, 0 a 1,1 0 1,0 2,0 a 1,1 0 1,0 -2,0 M 40.37 240.55 m -0.5, 0 a 0.5,0.5 0 1,0 1,0 a 0.5,0.5 0 1,0 -1,0  M40.37 240.55 L40.37 240.55 52.37 240.55 M 40.37 246.55 m -1, 0 a 1,1 0 1,0 2,0 a 1,1 0 1,0 -2,0 M 40.37 246.55 m -0.5, 0 a 0.5,0.5 0 1,0 1,0 a 0.5,0.5 0 1,0 -1,0  M40.37 246.55 L40.37 246.55 47.37 240.55 40.37 234.55 M 40.37 234.55 m -1, 0 a 1,1 0 1,0 2,0 a 1,1 0 1,0 -2,0 M 40.37 234.55 m -0.5, 0 a 0.5,0.5 0 1,0 1,0 a 0.5,0.5 0 1,0 -1,0  M52.37 240.55 Q 87.01 240.55, 121.64 277.74 T 190.91 314.91999999999996 M 202.91 314.91999999999996 m -1, 0 a 1,1 0 1,0 2,0 a 1,1 0 1,0 -2,0 M 202.91 314.91999999999996 m -0.5, 0 a 0.5,0.5 0 1,0 1,0 a 0.5,0.5 0 1,0 -1,0  M202.91 314.91999999999996 L202.91 314.91999999999996 190.91 314.91999999999996 M196.91 320.91999999999996 L196.91 320.91999999999996 196.91 308.91999999999996" id="h1882454883" class="r"></path><path d="M 40.37 290.55 m -1, 0 a 1,1 0 1,0 2,0 a 1,1 0 1,0 -2,0 M 40.37 290.55 m -0.5, 0 a 0.5,0.5 0 1,0 1,0 a 0.5,0.5 0 1,0 -1,0  M40.37 290.55 L40.37 290.55 52.37 290.55 M 40.37 296.55 m -1, 0 a 1,1 0 1,0 2,0 a 1,1 0 1,0 -2,0 M 40.37 296.55 m -0.5, 0 a 0.5,0.5 0 1,0 1,0 a 0.5,0.5 0 1,0 -1,0  M40.37 296.55 L40.37 296.55 47.37 290.55 40.37 284.55 M 40.37 284.55 m -1, 0 a 1,1 0 1,0 2,0 a 1,1 0 1,0 -2,0 M 40.37 284.55 m -0.5, 0 a 0.5,0.5 0 1,0 1,0 a 0.5,0.5 0 1,0 -1,0  M52.37 290.55 Q 87.01 290.55, 121.64 252.74 T 190.91 214.92 M 202.91 214.92 m -1, 0 a 1,1 0 1,0 2,0 a 1,1 0 1,0 -2,0 M 202.91 214.92 m -0.5, 0 a 0.5,0.5 0 1,0 1,0 a 0.5,0.5 0 1,0 -1,0  M202.91 214.92 L202.91 214.92 190.91 214.92 M196.91 220.92 L196.91 220.92 196.91 208.92" id="h1199676151" class="r"></path><path d="M 614.8 674.75 m -1, 0 a 1,1 0 1,0 2,0 a 1,1 0 1,0 -2,0 M 614.8 674.75 m -0.5, 0 a 0.5,0.5 0 1,0 1,0 a 0.5,0.5 0 1,0 -1,0  M614.8 674.75 L614.8 674.75 602.8 674.75 M 614.8 680.75 m -1, 0 a 1,1 0 1,0 2,0 a 1,1 0 1,0 -2,0 M 614.8 680.75 m -0.5, 0 a 0.5,0.5 0 1,0 1,0 a 0.5,0.5 0 1,0 -1,0  M614.8 680.75 L614.8 680.75 607.8 674.75 614.8 668.75 M 614.8 668.75 m -1, 0 a 1,1 0 1,0 2,0 a 1,1 0 1,0 -2,0 M 614.8 668.75 m -0.5, 0 a 0.5,0.5 0 1,0 1,0 a 0.5,0.5 0 1,0 -1,0  M602.8 674.75 Q 552.75 674.75, 502.69 444.84 T 402.58 214.92 M 390.58 214.92 m -1, 0 a 1,1 0 1,0 2,0 a 1,1 0 1,0 -2,0 M 390.58 214.92 m -0.5, 0 a 0.5,0.5 0 1,0 1,0 a 0.5,0.5 0 1,0 -1,0  M390.58 214.92 L390.58 214.92 402.58 214.92 M396.58 220.92 L396.58 220.92 396.58 208.92" id="h2532572773" class="r"></path><path d="M 525.64 369.63 m -1, 0 a 1,1 0 1,0 2,0 a 1,1 0 1,0 -2,0 M 525.64 369.63 m -0.5, 0 a 0.5,0.5 0 1,0 1,0 a 0.5,0.5 0 1,0 -1,0  M525.64 369.63 L525.64 369.63 513.64 369.63 M 525.64 375.63 m -1, 0 a 1,1 0 1,0 2,0 a 1,1 0 1,0 -2,0 M 525.64 375.63 m -0.5, 0 a 0.5,0.5 0 1,0 1,0 a 0.5,0.5 0 1,0 -1,0  M525.64 375.63 L525.64 375.63 518.64 369.63 525.64 363.63 M 525.64 363.63 m -1, 0 a 1,1 0 1,0 2,0 a 1,1 0 1,0 -2,0 M 525.64 363.63 m -0.5, 0 a 0.5,0.5 0 1,0 1,0 a 0.5,0.5 0 1,0 -1,0  M513.64 369.63 Q 485.88 369.63, 458.11 292.27 T 402.58 214.92 M 390.58 214.92 m -1, 0 a 1,1 0 1,0 2,0 a 1,1 0 1,0 -2,0 M 390.58 214.92 m -0.5, 0 a 0.5,0.5 0 1,0 1,0 a 0.5,0.5 0 1,0 -1,0  M390.58 214.92 L390.58 214.92 402.58 214.92 M396.58 220.92 L396.58 220.92 396.58 208.92" id="h1167705961" class="r"></path><path d="M 753.15 140 m -1, 0 a 1,1 0 1,0 2,0 a 1,1 0 1,0 -2,0 M 753.15 140 m -0.5, 0 a 0.5,0.5 0 1,0 1,0 a 0.5,0.5 0 1,0 -1,0  M753.15 140 L753.15 140 765.15 140 M 753.15 146 m -1, 0 a 1,1 0 1,0 2,0 a 1,1 0 1,0 -2,0 M 753.15 146 m -0.5, 0 a 0.5,0.5 0 1,0 1,0 a 0.5,0.5 0 1,0 -1,0  M753.15 146 L753.15 146 760.15 140 753.15 134 M 753.15 134 m -1, 0 a 1,1 0 1,0 2,0 a 1,1 0 1,0 -2,0 M 753.15 134 m -0.5, 0 a 0.5,0.5 0 1,0 1,0 a 0.5,0.5 0 1,0 -1,0  M765.15 140 Q 820.22 140, 875.3 178 T 985.44 216 M 997.44 216 m -1, 0 a 1,1 0 1,0 2,0 a 1,1 0 1,0 -2,0 M 997.44 216 m -0.5, 0 a 0.5,0.5 0 1,0 1,0 a 0.5,0.5 0 1,0 -1,0  M997.44 216 L997.44 216 985.44 216 M991.44 222 L991.44 222 991.44 210" id="h3873821784" class="r"></path><path d="M 626 165 m -1, 0 a 1,1 0 1,0 2,0 a 1,1 0 1,0 -2,0 M 626 165 m -0.5, 0 a 0.5,0.5 0 1,0 1,0 a 0.5,0.5 0 1,0 -1,0  M626 165 L626 165 614 165 M 626 171 m -1, 0 a 1,1 0 1,0 2,0 a 1,1 0 1,0 -2,0 M 626 171 m -0.5, 0 a 0.5,0.5 0 1,0 1,0 a 0.5,0.5 0 1,0 -1,0  M626 171 L626 171 619 165 626 159 M 626 159 m -1, 0 a 1,1 0 1,0 2,0 a 1,1 0 1,0 -2,0 M 626 159 m -0.5, 0 a 0.5,0.5 0 1,0 1,0 a 0.5,0.5 0 1,0 -1,0  M614 165 Q 561.15 165, 508.29 189.96 T 402.58 214.92 M 390.58 214.92 m -1, 0 a 1,1 0 1,0 2,0 a 1,1 0 1,0 -2,0 M 390.58 214.92 m -0.5, 0 a 0.5,0.5 0 1,0 1,0 a 0.5,0.5 0 1,0 -1,0  M390.58 214.92 L390.58 214.92 402.58 214.92 M396.58 220.92 L396.58 220.92 396.58 208.92" id="h2496268342" class="r"></path><path d="M 717 350.5 m -1, 0 a 1,1 0 1,0 2,0 a 1,1 0 1,0 -2,0 M 717 350.5 m -0.5, 0 a 0.5,0.5 0 1,0 1,0 a 0.5,0.5 0 1,0 -1,0  M717 350.5 L717 350.5 705 350.5 M 717 356.5 m -1, 0 a 1,1 0 1,0 2,0 a 1,1 0 1,0 -2,0 M 717 356.5 m -0.5, 0 a 0.5,0.5 0 1,0 1,0 a 0.5,0.5 0 1,0 -1,0  M717 356.5 L717 356.5 710 350.5 717 344.5 M 717 344.5 m -1, 0 a 1,1 0 1,0 2,0 a 1,1 0 1,0 -2,0 M 717 344.5 m -0.5, 0 a 0.5,0.5 0 1,0 1,0 a 0.5,0.5 0 1,0 -1,0  M705 350.5 Q 688.16 350.5, 671.32 335.07 T 637.64 319.63 M 625.64 319.63 m -1, 0 a 1,1 0 1,0 2,0 a 1,1 0 1,0 -2,0 M 625.64 319.63 m -0.5, 0 a 0.5,0.5 0 1,0 1,0 a 0.5,0.5 0 1,0 -1,0  M625.64 319.63 L625.64 319.63 637.64 319.63 M631.64 325.63 L631.64 325.63 631.64 313.63" id="h3648912452" class="r"></path><path d="M 867.5 375.5 m -1, 0 a 1,1 0 1,0 2,0 a 1,1 0 1,0 -2,0 M 867.5 375.5 m -0.5, 0 a 0.5,0.5 0 1,0 1,0 a 0.5,0.5 0 1,0 -1,0  M867.5 375.5 L867.5 375.5 879.5 375.5 M 867.5 381.5 m -1, 0 a 1,1 0 1,0 2,0 a 1,1 0 1,0 -2,0 M 867.5 381.5 m -0.5, 0 a 0.5,0.5 0 1,0 1,0 a 0.5,0.5 0 1,0 -1,0  M867.5 381.5 L867.5 381.5 874.5 375.5 867.5 369.5 M 867.5 369.5 m -1, 0 a 1,1 0 1,0 2,0 a 1,1 0 1,0 -2,0 M 867.5 369.5 m -0.5, 0 a 0.5,0.5 0 1,0 1,0 a 0.5,0.5 0 1,0 -1,0  M879.5 375.5 Q 905.99 375.5, 932.47 295.75 T 985.44 216 M 997.44 216 m -1, 0 a 1,1 0 1,0 2,0 a 1,1 0 1,0 -2,0 M 997.44 216 m -0.5, 0 a 0.5,0.5 0 1,0 1,0 a 0.5,0.5 0 1,0 -1,0  M997.44 216 L997.44 216 985.44 216 M991.44 222 L991.44 222 991.44 210" id="h1659810650" class="r"></path><path d="M 88.67 487 m -1, 0 a 1,1 0 1,0 2,0 a 1,1 0 1,0 -2,0 M 88.67 487 m -0.5, 0 a 0.5,0.5 0 1,0 1,0 a 0.5,0.5 0 1,0 -1,0  M88.67 487 L88.67 487 100.67 487 M 88.67 493 m -1, 0 a 1,1 0 1,0 2,0 a 1,1 0 1,0 -2,0 M 88.67 493 m -0.5, 0 a 0.5,0.5 0 1,0 1,0 a 0.5,0.5 0 1,0 -1,0  M88.67 493 L88.67 493 95.67 487 88.67 481 M 88.67 481 m -1, 0 a 1,1 0 1,0 2,0 a 1,1 0 1,0 -2,0 M 88.67 481 m -0.5, 0 a 0.5,0.5 0 1,0 1,0 a 0.5,0.5 0 1,0 -1,0  M100.67 487 Q 123.23 487, 145.79 350.96 T 190.91 214.92 M 202.91 214.92 m -1, 0 a 1,1 0 1,0 2,0 a 1,1 0 1,0 -2,0 M 202.91 214.92 m -0.5, 0 a 0.5,0.5 0 1,0 1,0 a 0.5,0.5 0 1,0 -1,0  M202.91 214.92 L202.91 214.92 190.91 214.92 M196.91 220.92 L196.91 220.92 196.91 208.92" id="h4222745420" class="r"></path></g><g class="hrs"></g><g class="ts"><svg width="163.33" height="200" x="997.44" y="159" id="h1993081092" class="t"><rect height="40" width="163.33" class="th"></rect><text x="13" y="25" class="tht">Books</text><rect height="160" width="163.33" class="t-bg" y="40"></rect><text x="13" y="61" class="tf pk">ID<tspan x="150.33" class="ty">int</tspan></text><path d="M7,14A2,2 0 0,1 5,12A2,2 0 0,1 7,10A2,2 0 0,1 9,12A2,2 0 0,1 7,14M12.65,10C11.83,7.67 9.61,6 7, 6A6, 6 0 0, 0 1, 12A6, 6 0 0, 0 7, 18C9.61, 18 11.83, 16.33 12.65, 14H17V18H21V14H23V10H12.65Z" class="i pk" transform="translate(117.6633330154419, 48) scale(0.65)"></path><text x="13" y="86" class="tf">Author<tspan x="150.33" class="ty">string</tspan></text><text x="13" y="111" class="tf fk">Title<tspan x="150.33" class="ty">int</tspan></text><text x="13" y="136" class="tf">Publisher<tspan x="150.33" class="ty">string</tspan></text><text x="13" y="161" class="tf">Publication-Date<tspan x="150.33" class="ty">string</tspan></text><text x="13" y="186" class="tf fk">TagId<tspan x="150.33" class="ty">int</tspan></text></svg><svg width="187.67" height="300" x="202.91" y="157.92" id="h3889921393" class="t"><rect height="40" width="187.67" class="th"></rect><text x="13" y="25" class="tht">Users</text><rect height="260" width="187.67" class="t-bg" y="40"></rect><text x="13" y="61" class="tf pk">ID<tspan x="174.67" class="ty">int</tspan></text><path d="M7,14A2,2 0 0,1 5,12A2,2 0 0,1 7,10A2,2 0 0,1 9,12A2,2 0 0,1 7,14M12.65,10C11.83,7.67 9.61,6 7, 6A6, 6 0 0, 0 1, 12A6, 6 0 0, 0 7, 18C9.61, 18 11.83, 16.33 12.65, 14H17V18H21V14H23V10H12.65Z" class="i pk" transform="translate(142.00333301544188, 48) scale(0.65)"></path><text x="13" y="86" class="tf fk">username(unique)<tspan x="174.67" class="ty">string</tspan></text><path d="M814.545 581.818v-23.273H535.273v-93.09h-46.546v93.09H209.455v139.637H256V605.09h232.727v93.09h46.546v-93.09H768v93.09h46.545V581.819zM674.91 465.455H349.091V139.636h325.818v325.819zM325.82 884.364H139.635V698.182h186.182v186.182z m279.272 0H418.909V698.182h186.182v186.182z m279.273 0H698.182V698.182h186.182v186.182zM395.636 418.909h232.728V186.182H395.636v232.727zM186.182 837.82h93.09v-93.092h-93.09v93.091z m279.273 0h93.09v-93.092h-93.09v93.091z m279.272 0h93.091v-93.092h-93.09v93.091z" class="i ix" transform="translate(130.33666603088378, 75) scale(0.014)"></path><text x="13" y="111" class="tf">email(unique)<tspan x="174.67" class="ty">string</tspan></text><path d="M814.545 581.818v-23.273H535.273v-93.09h-46.546v93.09H209.455v139.637H256V605.09h232.727v93.09h46.546v-93.09H768v93.09h46.545V581.819zM674.91 465.455H349.091V139.636h325.818v325.819zM325.82 884.364H139.635V698.182h186.182v186.182z m279.272 0H418.909V698.182h186.182v186.182z m279.273 0H698.182V698.182h186.182v186.182zM395.636 418.909h232.728V186.182H395.636v232.727zM186.182 837.82h93.09v-93.092h-93.09v93.091z m279.273 0h93.09v-93.092h-93.09v93.091z m279.272 0h93.091v-93.092h-93.09v93.091z" class="i ix" transform="translate(130.33666603088378, 100) scale(0.014)"></path><text x="13" y="136" class="tf">hashedPassword<tspan x="174.67" class="ty">string</tspan></text><text x="13" y="161" class="tf fk">bookshelvesId<tspan x="174.67" class="ty">int</tspan></text><text x="13" y="186" class="tf">birthdate<tspan x="174.67" class="ty">date</tspan></text><text x="13" y="211" class="tf">fullName<tspan x="174.67" class="ty">string</tspan></text><text x="13" y="236" class="tf">gender<tspan x="174.67" class="ty">string</tspan></text><text x="13" y="261" class="tf">createdAt<tspan x="174.67" class="ty">datetime</tspan></text><text x="13" y="286" class="tf">updatedAt<tspan x="174.67" class="ty">datetime</tspan></text></svg><svg width="105.37" height="125" x="-65" y="183.55" id="h445930477" class="t"><rect height="40" width="105.37" class="th"></rect><text x="13" y="25" class="tht">Bookshelves</text><rect height="85" width="105.37" class="t-bg" y="40"></rect><text x="13" y="61" class="tf pk">ID<tspan x="92.37" class="ty">int</tspan></text><path d="M7,14A2,2 0 0,1 5,12A2,2 0 0,1 7,10A2,2 0 0,1 9,12A2,2 0 0,1 7,14M12.65,10C11.83,7.67 9.61,6 7, 6A6, 6 0 0, 0 1, 12A6, 6 0 0, 0 7, 18C9.61, 18 11.83, 16.33 12.65, 14H17V18H21V14H23V10H12.65Z" class="i pk" transform="translate(59.7033330154419, 48) scale(0.65)"></path><text x="13" y="86" class="tf">name<tspan x="92.37" class="ty">string</tspan></text><text x="13" y="111" class="tf fk">userId<tspan x="92.37" class="ty">int</tspan></text></svg><svg width="105.33" height="125" x="614.8" y="567.75" id="h1358376997" class="t"><rect height="40" width="105.33" class="th"></rect><text x="13" y="25" class="tht">Tags</text><rect height="85" width="105.33" class="t-bg" y="40"></rect><text x="13" y="61" class="tf pk">ID<tspan x="92.33" class="ty">int</tspan></text><path d="M7,14A2,2 0 0,1 5,12A2,2 0 0,1 7,10A2,2 0 0,1 9,12A2,2 0 0,1 7,14M12.65,10C11.83,7.67 9.61,6 7, 6A6, 6 0 0, 0 1, 12A6, 6 0 0, 0 7, 18C9.61, 18 11.83, 16.33 12.65, 14H17V18H21V14H23V10H12.65Z" class="i pk" transform="translate(59.66333301544189, 48) scale(0.65)"></path><text x="13" y="86" class="tf">name<tspan x="92.33" class="ty">string</tspan></text><text x="13" y="111" class="tf fk">userId<tspan x="92.33" class="ty">int</tspan></text></svg><svg width="100" height="125" x="525.64" y="262.63" id="h2766595593" class="t"><rect height="40" width="100" class="th"></rect><text x="13" y="25" class="tht">Reviews</text><rect height="85" width="100" class="t-bg" y="40"></rect><text x="13" y="61" class="tf pk">ID<tspan x="87" class="ty">int</tspan></text><path d="M7,14A2,2 0 0,1 5,12A2,2 0 0,1 7,10A2,2 0 0,1 9,12A2,2 0 0,1 7,14M12.65,10C11.83,7.67 9.61,6 7, 6A6, 6 0 0, 0 1, 12A6, 6 0 0, 0 7, 18C9.61, 18 11.83, 16.33 12.65, 14H17V18H21V14H23V10H12.65Z" class="i pk" transform="translate(54.333333015441895, 48) scale(0.65)"></path><text x="13" y="86" class="tf">review<tspan x="87" class="ty">text</tspan></text><text x="13" y="111" class="tf fk">userId<tspan x="87" class="ty">int</tspan></text></svg><svg width="127.15" height="100" x="626" y="83" id="h418035655" class="t"><rect height="40" width="127.15" class="th"></rect><text x="13" y="25" class="tht">UserJoinsBooks</text><rect height="60" width="127.15" class="t-bg" y="40"></rect><text x="13" y="61" class="tf fk">bookId<tspan x="114.15" class="ty">int</tspan></text><text x="13" y="86" class="tf fk">userId<tspan x="114.15" class="ty">int</tspan></text></svg><svg width="150.5" height="100" x="717" y="293.5" id="h1428647323" class="t"><rect height="40" width="150.5" class="th"></rect><text x="13" y="25" class="tht">ReviewsJoinsBooks</text><rect height="60" width="150.5" class="t-bg" y="40"></rect><text x="13" y="61" class="tf fk">reviewId<tspan x="137.5" class="ty">int</tspan></text><text x="13" y="86" class="tf fk">bookId<tspan x="137.5" class="ty">int</tspan></text></svg><svg width="122" height="125" x="-33.33" y="405" id="h844639550" class="t"><rect height="40" width="122" class="th"></rect><text x="13" y="25" class="tht">Victims</text><rect height="85" width="122" class="t-bg" y="40"></rect><text x="13" y="61" class="tf pk">ID<tspan x="109" class="ty">int</tspan></text><path d="M7,14A2,2 0 0,1 5,12A2,2 0 0,1 7,10A2,2 0 0,1 9,12A2,2 0 0,1 7,14M12.65,10C11.83,7.67 9.61,6 7, 6A6, 6 0 0, 0 1, 12A6, 6 0 0, 0 7, 18C9.61, 18 11.83, 16.33 12.65, 14H17V18H21V14H23V10H12.65Z" class="i pk" transform="translate(76.3333330154419, 48) scale(0.65)"></path><text x="13" y="86" class="tf fk">userid<tspan x="109" class="ty">int</tspan></text><text x="13" y="111" class="tf fk">following<tspan x="109" class="ty">string</tspan></text></svg></g></g><text class="qdbd-link" x="10" y="20">www.quickdatabasediagrams.com</text></svg>